<?xml version="1.0" standalone="no"?>
<!DOCTYPE svg PUBLIC "-//W3C//DTD SVG 20010904//EN"
 "http://www.w3.org/TR/2001/REC-SVG-20010904/DTD/svg10.dtd">
<svg version="1.0" xmlns="http://www.w3.org/2000/svg"
 width="512.000000pt" height="512.000000pt" viewBox="0 0 512.000000 512.000000"
 preserveAspectRatio="xMidYMid meet">
    <g transform="translate(0.000000,512.000000) scale(0.100000,-0.100000)"
    fill="#000000" stroke="none">
        <path d="M2410 5111 c-645 -41 -1231 -313 -1685 -782 -500 -518 -753 -1194
        -714 -1911 57 -1052 766 -1966 1775 -2291 377 -122 818 -155 1193 -91 621 105
        1186 439 1578 931 291 365 467 772 540 1250 23 150 23 536 0 686 -88 575 -333
        1065 -731 1463 -523 523 -1225 790 -1956 745z m-273 -1703 l423 -423 425 425
        425 425 212 -213 213 -212 -425 -425 -425 -425 425 -425 425 -425 -213 -212
        -212 -213 -425 425 -425 425 -425 -425 -425 -425 -212 213 -213 212 425 425
        425 425 -425 425 -425 425 210 210 c115 115 212 210 215 210 3 0 195 -190 427
        -422z"/>
    </g>
</svg>
